<?xml version="1.0" encoding="utf-8"?>
<!DOCTYPE svg PUBLIC "-//W3C//DTD SVG 1.1//EN" "http://www.w3.org/Graphics/SVG/1.1/DTD/svg11.dtd">
<svg version="1.1" xmlns="http://www.w3.org/2000/svg" xmlns:xlink="http://www.w3.org/1999/xlink"
	 width="212px" height="44px" xml:space="preserve">
<g fill="#B7BABE">
	<g>
		<path d="M205.338,6.425c-8.567-8.567-22.456-8.567-31.022,0c-6.204,6.204-8.009,15.518-5.132,22.942
			c2.424,6.253,6.852,3.363,7.315,2.897c0.042-0.041,0.09-0.071,0.137-0.103c0.028-0.036,0.052-0.076,0.085-0.11
			c0.987-0.987,1.237-1.558,1.244-3.971c0-0.312,0.125-0.61,0.345-0.83l9.825-9.823c-0.379-0.61-0.542-0.992-0.575-1.076
			c-0.029-0.071-0.048-0.144-0.062-0.217c-0.001-0.004-0.004-0.008-0.004-0.013c-0.001-0.006,0-0.013-0.001-0.019
			c-0.029-0.176-0.018-0.354,0.032-0.522c0.003-0.011,0.005-0.022,0.009-0.033c0.026-0.08,0.061-0.156,0.104-0.23
			c0.007-0.012,0.014-0.022,0.021-0.033c0.047-0.073,0.098-0.144,0.161-0.207l1.381-1.38v-0.001
			c0.064-0.063,0.134-0.115,0.208-0.161c0.01-0.007,0.021-0.014,0.031-0.02c0.074-0.044,0.153-0.079,0.234-0.104
			c0.008-0.003,0.016-0.005,0.024-0.007c0.169-0.05,0.348-0.062,0.524-0.033c0.007,0.001,0.014,0,0.021,0.001
			c0.005,0.001,0.01,0.004,0.016,0.005c0.072,0.015,0.144,0.033,0.215,0.061c0.084,0.034,0.464,0.196,1.075,0.575l4.359-4.359
			c0.893-0.892,2.019-1.383,3.173-1.383c1.142,0,2.255,0.484,3.134,1.363c1.733,1.734,1.725,4.563-0.019,6.307l-4.373,4.374
			c0.343,0.573,0.483,0.926,0.512,1.005c0.09,0.244,0.093,0.504,0.021,0.744c-0.002,0.006-0.003,0.012-0.005,0.019
			c-0.026,0.083-0.062,0.163-0.106,0.239c-0.005,0.01-0.012,0.019-0.019,0.028c-0.046,0.075-0.099,0.146-0.163,0.21l-1.38,1.381
			c-0.056,0.055-0.117,0.105-0.181,0.148c-0.051,0.034-0.106,0.061-0.162,0.086c-0.015,0.007-0.028,0.016-0.042,0.022
			c-0.046,0.019-0.096,0.031-0.145,0.043c-0.025,0.007-0.049,0.018-0.075,0.023c-0.059,0.012-0.118,0.015-0.178,0.017
			c-0.017,0-0.034,0.005-0.05,0.005l0,0c-0.072,0-0.144-0.008-0.215-0.021c-0.003,0-0.006,0-0.009,0
			c-0.01-0.002-0.019-0.008-0.03-0.01c-0.051-0.011-0.104-0.023-0.155-0.042c-0.079-0.029-0.433-0.169-1.005-0.512l-9.837,9.838
			c-0.22,0.221-0.518,0.344-0.83,0.345c-2.414,0.006-2.984,0.256-3.972,1.243c-0.038,0.038-0.081,0.069-0.124,0.1
			c-0.028,0.042-0.054,0.085-0.091,0.122c-0.463,0.464-3.354,4.892,2.899,7.314c7.425,2.878,16.739,1.073,22.943-5.132
			C213.992,28.968,213.905,14.992,205.338,6.425z"/>
		<path d="M190.962,20.89c-0.554-0.554-1.019-1.068-1.416-1.541l-9.229,9.229c-0.031,1.625-0.207,2.746-0.854,3.811
			c1.064-0.647,2.185-0.823,3.811-0.854l9.231-9.231C192.034,21.911,191.519,21.447,190.962,20.89z"/>
	</g>
	<g>
		<path d="M8.847,12.852c2.712,0,4.268,0.359,5.664,0.958c0.16,0.12,0.199,0.319,0.08,0.479l-1.236,2.792
			c-0.08,0.16-0.199,0.199-0.398,0.12c-1.077-0.439-1.875-0.519-3.111-0.519c-2.593,0-4.547,1.755-4.547,5.703
			s1.954,5.663,4.547,5.663c1.236,0,2.034-0.08,3.111-0.518c0.199-0.08,0.319-0.04,0.398,0.12l1.236,2.832
			c0.12,0.199,0.12,0.319-0.08,0.438c-1.396,0.638-2.952,0.997-5.664,0.997c-5.464,0-8.654-3.629-8.654-9.532
			C0.193,16.481,3.383,12.852,8.847,12.852z"/>
		<path d="M25.917,31.916c-6.381,0-8.654-3.549-8.654-9.532c0-6.022,2.273-9.532,8.654-9.532c6.341,0,8.615,3.51,8.615,9.532
			C34.532,28.366,32.258,31.916,25.917,31.916z M25.917,16.401c-2.393,0-3.589,1.835-3.589,5.982c0,4.148,1.196,5.942,3.589,5.942
			s3.55-1.794,3.55-5.942C29.467,18.236,28.31,16.401,25.917,16.401z"/>
		<path d="M38.918,3.32c0-0.319,0.16-0.479,0.479-0.479h3.988c0.279,0,0.439,0.16,0.439,0.479v22.334
			c0,1.476,0.718,2.193,2.153,2.193h2.233c0.319,0,0.479,0.16,0.479,0.438v2.872c0,0.319-0.16,0.479-0.479,0.479h-3.669
			c-3.55,0-5.624-2.074-5.624-5.624V3.32z"/>
		<path d="M59.338,31.916c-6.381,0-8.654-3.549-8.654-9.532c0-6.022,2.273-9.532,8.654-9.532c6.341,0,8.615,3.51,8.615,9.532
			C67.953,28.366,65.68,31.916,59.338,31.916z M59.338,16.401c-2.393,0-3.589,1.835-3.589,5.982c0,4.148,1.196,5.942,3.589,5.942
			s3.55-1.794,3.55-5.942C62.888,18.236,61.731,16.401,59.338,16.401z"/>
		<path d="M76.886,15.684c1.635-2.114,3.55-2.832,5.583-2.832c0.279,0,0.439,0.12,0.439,0.399v3.708c0,0.28-0.16,0.439-0.439,0.439
			c-2.552,0-3.669,0.678-5.225,1.436v12.324c0,0.319-0.159,0.479-0.438,0.479h-3.988c-0.319,0-0.479-0.16-0.479-0.479V13.53
			c0-0.279,0.16-0.398,0.479-0.398h2.872c0.199,0,0.319,0.08,0.399,0.239L76.886,15.684z"/>
		<path d="M91.802,39.374c0,0.319-0.16,0.479-0.439,0.479h-3.988c-0.319,0-0.479-0.16-0.479-0.479V13.53
			c0-0.279,0.16-0.398,0.479-0.398h2.832c0.199,0,0.359,0.08,0.438,0.239l0.559,1.436c1.875-1.316,3.51-1.955,5.583-1.955
			c4.826,0,6.7,3.55,6.7,9.293c0,5.863-2.074,9.771-7.219,9.771c-1.715,0-3.151-0.598-4.467-1.515V39.374z M94.873,16.641
			c-1.077,0-2.153,0.359-3.071,0.877v9.612c0.917,0.598,1.834,0.957,3.071,0.957c2.354,0,3.55-1.994,3.55-5.942
			C98.423,18.037,97.306,16.641,94.873,16.641z"/>
		<path d="M111.624,23.979c0.16,2.672,1.236,4.188,3.35,4.188c2.034,0,3.071-0.518,4.626-1.156c0.239-0.08,0.398,0,0.479,0.2
			l1.117,2.792c0.08,0.199,0.04,0.319-0.12,0.359c-1.995,1.157-3.63,1.555-6.262,1.555c-5.105,0-8.136-3.071-8.136-9.173
			c0-5.863,2.911-9.891,8.016-9.891c4.786,0,7.378,3.311,7.378,9.253v1.436c0,0.279-0.12,0.438-0.359,0.438H111.624z
			 M117.287,20.869c0-3.311-1.236-4.388-2.672-4.388c-1.555,0-2.872,1.236-3.031,4.388H117.287z"/>
		<path d="M130.209,23.979c0.159,2.672,1.236,4.188,3.35,4.188c2.034,0,3.071-0.518,4.626-1.156c0.239-0.08,0.399,0,0.479,0.2
			l1.117,2.792c0.08,0.199,0.04,0.319-0.12,0.359c-1.994,1.157-3.629,1.555-6.261,1.555c-5.105,0-8.136-3.071-8.136-9.173
			c0-5.863,2.912-9.891,8.017-9.891c4.786,0,7.378,3.311,7.378,9.253v1.436c0,0.279-0.12,0.438-0.359,0.438H130.209z
			 M135.872,20.869c0-3.311-1.236-4.388-2.672-4.388c-1.556,0-2.871,1.236-3.031,4.388H135.872z"/>
		<path d="M149.95,20.829l5.304-7.578c0.08-0.08,0.2-0.12,0.359-0.12h4.626c0.2,0,0.359,0.239,0.239,0.518l-6.42,8.295l6.939,9.054
			c0.2,0.279,0.12,0.638-0.239,0.638h-5.065c-0.159,0-0.239-0.04-0.279-0.12l-5.464-8.056v7.697c0,0.319-0.16,0.479-0.438,0.479
			h-3.989c-0.319,0-0.479-0.16-0.479-0.479V3.32c0-0.319,0.16-0.479,0.479-0.479h3.989c0.279,0,0.438,0.16,0.438,0.479V20.829z"/>
	</g>
</g>
</svg>
