<?xml version="1.0" encoding="UTF-8"?>
<!-- Generated by Pixelmator Pro 3.6.18 -->
<svg width="1281" height="127" viewBox="0 0 1281 127" xmlns="http://www.w3.org/2000/svg">
    <g id="mildliner">
        <path id="body" fill="#ffffff" fill-rule="evenodd" stroke="#c8c8c8" stroke-width="2" stroke-linecap="round" stroke-linejoin="round" d="M 379.996155 28 L 1210 28 L 1210 35 L 1279 35 L 1279 112 L 1210 112 L 1210 122 L 76.812737 122 C 76.493095 113.675507 76.129379 94.400017 79 84 C 81.729874 74.109894 83.820953 69.178787 89 63 C 91.441681 60.08699 94.091202 57.269684 97.396851 55.48674 C 99.09758 54.569427 100.731613 54.206726 103 54 C 107.97937 53.546234 280 50 361 50 C 371.957642 50 379.427887 44.077797 379.996155 28 Z"/>
        <path id="sample" fill="#ffb2db" fill-rule="evenodd" stroke="#c2c2c2" stroke-linecap="round" stroke-linejoin="round" d="M 501 61.242447 C 496.875122 56.824615 490.568146 54 483.5 54 C 471.073608 54 461 62.730446 461 73.5 C 461 84.269554 471.073608 93 483.5 93 C 490.568146 93 496.875122 90.175385 501 85.757553 C 505.124878 90.175385 511.431854 93 518.5 93 C 530.926392 93 541 84.269554 541 73.5 C 541 62.730446 530.926392 54 518.5 54 C 511.431854 54 505.124878 56.824615 501 61.242447 Z"/>
        <path id="cap-color" fill="#ffb2db" fill-rule="evenodd" stroke="#c8c8c8" stroke-width="2" stroke-linecap="round" stroke-linejoin="round" d="M 77 126 C 77 126 75.270782 97.510635 79 84 C 81.729874 74.109894 83.820953 69.178787 89 63 C 91.441681 60.08699 94.091202 57.269684 97.396851 55.48674 C 99.09758 54.569427 100.731613 54.206726 103 54 C 107.97937 53.546234 280 50 361 50 C 372.822754 50 380.585693 43.105774 380 24 C 379.349335 2.77475 368 2 368 2 C 368 2 178 1 90 1 C 66 1 62.673248 7.107605 52 17 C 46.091995 22.475784 39 38 39 38 C 39 38 15.007141 36.784698 12 39 C 9.757431 40.652054 2.191589 64.352341 2 77 C 1.789154 90.918808 9.576881 109.396088 12 113 C 14.28141 116.393158 36.581589 112.763031 40 115 C 41.96875 116.28833 45 126 45 126 L 77 126 Z"/>
        <path id="cap-shadow" fill="#000000" fill-rule="evenodd" stroke="none" opacity="0.05" d="M 76 125 C 76 125 74.270782 96.510635 78 83 C 80.729874 73.109894 82.820953 68.178787 88 62 C 90.441681 59.08699 93.091202 56.269684 96.396851 54.48674 C 98.09758 53.569427 100.731613 53.206726 103 53 C 107.97937 52.546234 280 49 361 49 C 365.019745 49 369.502441 48.034805 372.348633 45.440735 C 377.873596 40.405197 378 33 378 33 C 378 33 197 35 109 35 C 97.960007 35 84.454651 40.943253 76.994202 48.5215 C 68.236282 57.417709 65.296387 68.567078 63 75 C 58.031342 88.918808 59 125 59 125 Z"/>
        <path id="shadows" fill="#f2f2f2" fill-rule="evenodd" stroke="none" d="M 78 121 L 1209 121 L 1209 109 L 78 109 Z M 1212 111 L 1278 111 L 1278 99 L 1212 99 Z"/>
        <path id="dividers" fill="none" stroke="#c8c8c8" stroke-width="3" stroke-linecap="round" stroke-linejoin="round" d="M 338 53 L 338 121 L 338 121 M 354 53 L 354 121 L 354 121 M 1211 37 L 1211 111 L 1211 111 M 1020 29 L 1020 120 L 1020 120"/>
    </g>
</svg>
