<?xml version="1.0" encoding="UTF-8"?>
<!-- Generated by Pixelmator Pro 3.7.1 -->
<svg width="1975" height="1983" viewBox="0 0 1975 1983" xmlns="http://www.w3.org/2000/svg">
    <g id="brush">
        <g id="Shape-copy">
            <path id="path1" fill="#000000" fill-rule="evenodd" stroke="none" d="M 589.337219 1604 C 580.675598 1604 565.207886 1599.51709 554.964111 1594.038086 C 544.720337 1588.559082 529.693481 1578.49292 521.570679 1571.669189 C 513.448181 1564.845215 502.56781 1550.772217 497.392334 1540.395996 C 491.781616 1529.147339 487.982269 1513.855713 487.982269 1502.522949 C 487.982269 1492.069092 492.348053 1470.63208 497.684082 1454.88501 C 503.019867 1439.138306 514.412354 1414.96228 523.000427 1401.160889 C 531.588318 1387.359497 551.882568 1353.483154 568.098511 1325.880371 C 584.314636 1298.277588 603.335449 1266.283325 610.367188 1254.782104 C 617.399231 1243.281006 636.39856 1212.227783 652.588135 1185.775024 C 668.778015 1159.322266 682.811462 1132.463135 683.774048 1126.087891 C 685.175171 1116.805176 681.619629 1110.32251 665.923157 1093.541626 C 655.143127 1082.016724 641.553101 1062.169189 635.723877 1049.436035 C 629.894409 1036.702881 624.136902 1018.919495 622.929504 1009.917053 C 621.722107 1000.914917 623.02063 988.029175 625.815247 981.282532 C 628.609924 974.535645 635.910461 967.119202 642.038879 964.801636 C 648.166992 962.483826 678.933228 959.662415 710.408081 958.531372 C 745.611328 957.266479 772.168518 954.310059 779.415222 950.849365 C 788.327759 946.592896 798.695801 930.979614 822.008057 886.70813 C 838.955078 854.524658 880.879944 771.7323 915.174438 702.725098 C 949.468689 633.718018 980.660461 574.905151 984.48938 572.029785 C 988.318359 569.154541 996.799805 566.802002 1003.337341 566.802002 C 1009.874939 566.802002 1024.303223 571.402954 1035.400635 577.026367 C 1046.497681 582.649902 1064.596191 597.235107 1075.619507 609.438843 C 1086.642822 621.641968 1099.136719 637.272827 1103.384155 644.173584 C 1108.209351 652.013794 1111.092773 664.564697 1111.070923 677.631592 C 1111.046387 692.096924 1106.739014 708.382813 1097.098022 730.463989 C 1089.432617 748.020508 1074.142822 778.132813 1063.121216 797.379883 C 1052.099487 816.627075 1029.802856 852.847046 1013.572937 877.868652 C 997.343262 902.890137 983.295532 928.600586 982.355896 935.002563 C 981.079102 943.702271 982.921814 947.859985 989.650085 951.460815 C 996.639465 955.201416 1003.046082 954.899658 1018.300415 950.111694 C 1029.106567 946.719971 1046.417236 942.742676 1056.768311 941.273438 C 1067.119263 939.804077 1094.408447 932.911499 1117.410889 925.956543 C 1140.413208 919.001343 1173.348511 908.419922 1190.60022 902.442383 C 1207.852051 896.4646 1236.369629 884.44165 1253.972656 875.724609 C 1271.575684 867.007324 1309.215942 844.466797 1337.617676 825.634399 C 1366.019409 806.801758 1397.726318 782.593994 1408.077271 771.839478 C 1418.428223 761.084961 1431.519409 744.898926 1437.168701 735.869873 C 1442.817993 726.841187 1452.698486 709.30835 1459.125488 696.908203 C 1470.044434 675.841187 1470.811035 671.019775 1470.811035 623.423218 C 1470.811035 576.101318 1469.994141 570.884766 1459.309814 549.96167 C 1449.668213 531.080811 1443.751465 525.248535 1422.715088 513.887817 C 1408.913696 506.43457 1379.742432 495.246826 1357.890259 489.026001 C 1321.696533 478.722534 1310.152222 477.549316 1228.240479 475.847778 C 1168.106079 474.598999 1132.780884 475.55835 1121.59314 478.744507 C 1112.39209 481.364502 1089.376709 485.280273 1070.447388 487.447021 C 1051.518188 489.613159 1017.64209 495.953979 995.16687 501.537109 C 972.691833 507.120728 933.800842 518.567749 908.742554 526.97522 C 883.684021 535.383057 832.869568 557.339844 795.821777 575.768433 C 758.773743 594.197021 713.40564 619.292969 695.003662 631.536987 C 675.346497 644.616211 640.499084 675.103027 610.521851 705.446777 C 576.270508 740.117065 553.16272 767.69043 540.224915 789.328857 C 529.624573 807.057739 517.297607 834.340942 512.831482 849.958252 C 507.091339 870.030396 504.723267 891.227905 504.752106 922.280029 C 504.787079 959.824524 506.252289 969.341003 514.83606 987.776733 C 520.359741 999.640381 531.633484 1019.376404 539.888733 1031.634766 C 548.143982 1043.893066 554.898254 1059.049805 554.898254 1065.316528 C 554.898254 1071.716797 550.810486 1080.519043 545.571411 1085.399902 C 540.44165 1090.178955 532.030945 1095.146729 526.880737 1096.439453 C 520.753357 1097.977295 504.823578 1092.655884 480.792755 1081.043457 C 452.795349 1067.51416 436.462799 1055.906494 412.061066 1032.195313 C 388.661499 1009.457825 375.72699 992.576965 363.965179 969.425232 C 347.876892 937.756958 347.876892 937.756958 346.537506 871.042114 C 345.198395 804.327271 345.198395 804.327271 368.171417 757.708252 C 383.29303 727.022461 401.624817 698.284546 421.809601 673.62146 C 438.675171 653.014404 468.462189 622.367432 488.00293 605.517944 C 507.543671 588.667969 542.76532 562.242432 566.273621 546.793945 C 589.781677 531.345825 620.834839 511.922729 635.280701 503.632324 C 649.726379 495.341309 679.424866 480.955078 701.277039 471.662476 C 723.12915 462.369873 757.005554 448.596802 776.557495 441.054688 C 796.109497 433.513184 822.457581 424.927612 835.109009 421.976318 C 847.760437 419.025391 868.462341 413.848633 881.11377 410.473633 C 893.765137 407.0979 918.231201 401.430054 935.483032 397.878296 C 952.734802 394.32605 983.787964 388.368652 1004.490112 384.639771 C 1035.828369 378.994385 1065.588135 378.15918 1182.235718 379.651489 C 1288.662598 381.013062 1328.87561 382.991333 1349.525757 387.880127 C 1364.477295 391.420166 1391.449585 398.358765 1409.464111 403.299683 C 1427.478638 408.240479 1453.826782 418.141235 1468.015625 425.300903 C 1482.204468 432.46106 1507.928467 447.727905 1525.180298 459.227051 C 1542.432007 470.726685 1560.873901 484.052979 1566.162476 488.841187 C 1571.450439 493.629517 1582.511108 507.692017 1590.740845 520.090698 C 1598.971069 532.48938 1611.087891 553.246948 1617.667603 566.218994 C 1629.264282 589.08252 1629.632324 591.75415 1629.68335 653.488281 C 1629.731934 711.404907 1628.783325 719.704102 1619.213501 745.129639 C 1613.425659 760.506226 1597.898926 789.150513 1584.709961 808.783325 C 1571.520386 828.41626 1553.120483 853.650879 1543.820923 864.860352 C 1534.521118 876.069702 1514.760132 894.501343 1499.907349 905.819824 C 1485.054443 917.137939 1457.163086 937.237183 1437.926636 950.484863 C 1418.690063 963.732361 1379.167847 986.804443 1350.099365 1001.755981 C 1317.990112 1018.271606 1297.247681 1031.402588 1297.247681 1035.213989 C 1297.247681 1038.664429 1313.244751 1052.294189 1332.796753 1065.502686 C 1352.348755 1078.71106 1374.6427 1095.398682 1382.338745 1102.585938 C 1390.034668 1109.773438 1404.741699 1128.655029 1415.02124 1144.54541 C 1425.300415 1160.435669 1439.564331 1188.916504 1446.718384 1207.836182 C 1453.872437 1226.755615 1460.547363 1253.527588 1461.55127 1267.328857 C 1462.788086 1284.328125 1460.982544 1299.841919 1455.954346 1315.424805 C 1451.871948 1328.076172 1445.265137 1348.173584 1441.272339 1360.086304 C 1437.279785 1371.998779 1427.292236 1391.759766 1419.078125 1404 C 1410.86377 1416.239868 1397.029663 1435.557983 1388.335571 1446.929199 C 1379.641602 1458.300537 1362.177124 1475.750366 1349.525757 1485.706665 C 1336.87439 1495.663086 1312.479492 1513.648438 1295.314453 1525.674438 C 1278.14978 1537.700195 1257.826416 1550.925171 1250.151367 1555.062988 C 1242.476563 1559.201172 1222.644287 1567.343506 1206.079712 1573.157471 C 1189.515137 1578.971558 1168.434326 1585.519409 1159.233398 1587.708252 C 1150.032349 1589.897217 1135.408813 1594.458252 1126.736206 1597.843994 C 1114.465698 1602.634521 1089.422485 1604 1013.829712 1604 C 920.079834 1604 915.523865 1603.614746 883.219177 1592.958008 C 864.809509 1586.884766 838.454773 1576.279297 824.653381 1569.390015 C 810.85199 1562.500977 789.208923 1550.334229 776.557495 1542.353394 C 763.906128 1534.372314 747.20874 1521.92334 739.452026 1514.688721 C 731.695557 1507.454224 721.85614 1494.006836 717.587097 1484.805908 C 713.318054 1475.604858 709.783936 1460.212646 709.733398 1450.600952 C 709.678528 1440.183594 712.296021 1430.470825 716.213562 1426.552979 C 719.828369 1422.938477 729.233032 1419.980957 737.112793 1419.980957 C 747.581665 1419.980957 755.754761 1423.87915 767.462952 1434.457031 C 776.275696 1442.418701 795.571899 1454.650146 810.343262 1461.638428 C 837.200134 1474.343628 837.200134 1474.343628 933.391907 1474.293579 C 1024.633545 1474.246094 1031.283691 1473.700562 1062.621216 1463.693237 C 1080.791992 1457.890869 1116.550171 1442.564941 1142.083984 1429.635864 C 1183.022461 1408.90686 1193.137085 1401.447754 1227.668213 1366.521973 C 1254.115112 1339.772705 1270.167603 1319.618164 1277.118042 1304.43689 C 1286.80957 1283.267822 1287.330078 1278.408447 1286.05481 1221.009155 C 1284.700928 1160.059448 1284.700928 1160.059448 1267.757935 1144.266235 C 1257.126709 1134.356079 1238.091919 1123.566406 1216.6604 1115.301392 C 1182.505615 1102.130005 1182.505615 1102.130005 1037.037598 1102.136475 C 906.749939 1102.142334 890.089111 1102.906006 877.38562 1109.455322 C 866.837585 1114.893555 855.68457 1129.096191 833.874817 1164.86377 C 817.745178 1191.316528 796.751465 1227.074707 787.222168 1244.326416 C 777.693176 1261.578369 763.120117 1286.044434 754.83783 1298.695801 C 746.555786 1311.347168 721.23584 1358.397461 698.571472 1403.251953 C 675.907043 1448.106445 653.160217 1498.920898 648.022766 1516.172729 C 642.885315 1533.424561 634.416382 1556.909424 629.202637 1568.361084 C 623.988831 1579.812744 616.429688 1592.516357 612.404175 1596.591187 C 607.975891 1601.073975 598.865479 1604 589.337219 1604 Z"/>
            <path id="path2" fill="#000000" fill-rule="evenodd" stroke="none" d="M 589.337219 1606 C 599.354675 1606 608.972595 1602.910889 613.827026 1597.996704 C 618.057983 1593.713867 625.718811 1580.8396 631.022888 1569.189819 C 636.27832 1557.646484 644.777466 1534.078247 649.939575 1516.74353 C 655.032471 1499.641235 677.744873 1448.904053 700.356506 1404.153931 C 722.985474 1359.369629 748.284607 1312.357788 756.511169 1299.79126 C 764.823608 1287.09375 779.421936 1262.585083 788.972839 1245.293457 C 798.486328 1228.070313 819.466187 1192.335693 835.582397 1165.905029 C 857.186768 1130.474243 868.210876 1116.435669 878.302124 1111.23291 C 890.551636 1104.917725 907.466309 1104.142334 1037.03772 1104.136475 C 1113.431152 1104.133057 1134.097412 1104.250977 1154.044312 1105.004395 C 1176.042358 1105.835449 1187.482178 1107.422241 1199.050659 1111.035156 C 1203.440552 1112.406128 1206.858887 1113.665161 1215.940796 1117.16748 C 1237.153931 1125.348267 1255.97583 1136.017456 1266.394165 1145.729248 C 1271.205933 1150.214478 1272.901733 1151.873657 1274.706055 1153.980103 C 1281.672607 1162.112793 1282.830933 1169.297852 1283.769653 1208.497192 C 1283.84729 1211.740356 1283.908813 1214.456665 1284.055298 1221.053589 C 1285.324219 1278.168701 1284.829346 1282.788452 1275.299561 1303.60437 C 1268.470947 1318.519409 1252.539795 1338.521362 1226.245972 1365.115845 C 1191.863647 1399.891113 1181.923218 1407.22168 1141.180542 1427.851563 C 1115.733887 1440.73645 1080.069824 1456.021973 1062.012817 1461.787964 C 1030.933472 1471.712891 1024.431885 1472.246216 933.390869 1472.293579 C 850.361938 1472.336792 840.890686 1471.879272 826.063477 1466.397583 C 822.254944 1464.989502 819.295776 1463.661133 811.198547 1459.830566 C 796.59198 1452.920166 777.457764 1440.79126 768.803711 1432.973022 C 756.758728 1422.09082 748.141968 1417.980957 737.112793 1417.980957 C 728.749023 1417.980957 718.842102 1421.096313 714.799438 1425.138672 C 710.42395 1429.514526 707.676025 1439.711792 707.733398 1450.61145 C 707.785522 1460.514526 711.384583 1476.189697 715.772888 1485.647705 C 720.151733 1495.085205 730.144775 1508.742676 738.087891 1516.151245 C 745.945068 1523.479614 762.740051 1536.001465 775.490417 1544.044922 C 788.200134 1552.0625 809.901367 1564.261841 823.760193 1571.179443 C 837.652466 1578.114136 864.095215 1588.755127 882.59259 1594.8573 C 915.163086 1605.601807 919.873779 1606 1013.829712 1606 C 1089.792236 1606 1114.843262 1604.634155 1127.463501 1599.707031 C 1136.049683 1596.355103 1150.584961 1591.821533 1159.696289 1589.653931 C 1168.977051 1587.446045 1190.117554 1580.879761 1206.742065 1575.044556 C 1223.398315 1569.198486 1243.314697 1561.021484 1251.100586 1556.823364 C 1258.861816 1552.639038 1279.236572 1539.380737 1296.462036 1527.312378 C 1313.655884 1515.266235 1338.080078 1497.259277 1350.762573 1487.27832 C 1363.542236 1477.221069 1381.125488 1459.652588 1389.924438 1448.143921 C 1398.643555 1436.73999 1412.501587 1417.388428 1420.73877 1405.114502 C 1429.049194 1392.730835 1439.117065 1372.810669 1443.168701 1360.721924 C 1447.163818 1348.802246 1453.772949 1328.697754 1457.857666 1316.03894 C 1462.96582 1300.208252 1464.80127 1284.436646 1463.546021 1267.183716 C 1462.526611 1253.168945 1455.806519 1226.215698 1448.589111 1207.128784 C 1441.385864 1188.079102 1427.058472 1159.471069 1416.700562 1143.459106 C 1406.339844 1127.443237 1391.540649 1108.443237 1383.703857 1101.124268 C 1375.912109 1093.847656 1353.548218 1077.107788 1333.916382 1063.845459 C 1324.462158 1057.458618 1315.564941 1050.781006 1308.987305 1045.176758 C 1303.224976 1040.26709 1299.530762 1036.28833 1299.263306 1035.313599 L 1299.265747 1035.308838 C 1299.35144 1035.142822 1299.509033 1034.914795 1299.738281 1034.639648 C 1300.27478 1033.995605 1301.123779 1033.186646 1302.265747 1032.241333 C 1304.626465 1030.287231 1308.149902 1027.820923 1312.702271 1024.938965 C 1321.991211 1019.058533 1335.248535 1011.643677 1351.01416 1003.534485 C 1380.152954 988.546814 1419.74707 965.432861 1439.061035 952.13208 C 1458.32312 938.866699 1486.23999 918.749023 1501.119507 907.410583 C 1516.086426 896.005127 1535.956909 877.471436 1545.360107 866.13739 C 1554.708496 854.869141 1573.145508 829.583679 1586.370117 809.898621 C 1599.639282 790.146423 1615.237305 761.370422 1621.085327 745.834167 C 1630.760254 720.129211 1631.732178 711.62323 1631.68335 653.486633 C 1631.63208 591.459595 1631.229492 588.535767 1619.451294 565.31427 C 1612.835938 552.271912 1600.67981 531.447205 1592.407104 518.984619 C 1584.093506 506.459442 1572.94397 492.283813 1567.504883 487.358673 C 1562.119385 482.482666 1543.622437 469.116608 1526.289551 457.562897 C 1508.973877 446.021179 1483.182007 430.714142 1468.916626 423.515381 C 1454.603027 416.292755 1428.130615 406.345428 1409.993164 401.370911 C 1391.961182 396.425232 1364.965698 389.480499 1349.986572 385.933929 C 1329.125854 380.9953 1288.881104 379.015686 1182.261353 377.651642 C 1065.474487 376.157562 1035.648438 376.994598 1004.135559 382.671448 C 983.419678 386.402802 952.350098 392.363312 935.079712 395.919403 C 917.792114 399.478516 893.28949 405.154846 880.598145 408.541229 C 867.954529 411.914154 847.273071 417.085388 834.654724 420.028595 C 821.90155 423.003632 795.471069 431.615814 775.837769 439.18869 C 756.255432 446.742493 722.357178 460.524811 700.494385 469.821991 C 678.572693 479.144135 648.805542 493.563812 634.285156 501.897736 C 619.801575 510.209747 588.718262 529.651428 565.175293 545.122559 C 541.595337 560.618042 506.304413 587.095703 486.696838 604.003296 C 467.068604 620.928223 437.200775 651.658081 420.261871 672.354736 C 399.978699 697.138062 381.564972 726.004578 366.377411 756.824219 C 354.084442 781.770203 350.850739 788.990234 348.052643 798.918762 C 343.937042 813.522217 343.582764 823.497192 344.537903 871.082275 C 344.688385 878.577271 344.751312 881.655457 344.830963 885.329834 C 345.648315 923.037537 346.640869 933.757507 350.961731 946.069092 C 353.079376 952.102905 355.203705 956.594849 362.182098 970.331116 C 374.050049 993.691772 387.117706 1010.746399 410.667297 1033.629639 C 435.219421 1057.486938 451.727509 1069.21936 479.922577 1082.844238 C 504.457977 1094.700439 520.574341 1100.084229 527.367615 1098.379272 C 532.872131 1096.997681 541.572754 1091.858643 546.934692 1086.863281 C 552.567688 1081.615479 556.898254 1072.290405 556.898254 1065.316528 C 556.898254 1058.541138 550.009644 1043.082886 541.547607 1030.517578 C 533.348999 1018.343262 522.127075 998.697937 516.64917 986.932556 C 508.211456 968.810547 506.786835 959.557434 506.752106 922.278137 C 506.723419 891.398682 509.071503 870.380127 514.754395 850.508179 C 519.169556 835.069031 531.425781 807.942566 541.941467 790.355225 C 554.780396 768.882141 577.796204 741.418457 611.944641 706.852356 C 641.834839 676.596741 676.588379 646.192139 696.111572 633.202087 C 714.431152 621.012878 759.733765 595.953247 796.712524 577.559143 C 833.683411 559.168762 884.41803 537.246338 909.378723 528.871338 C 934.386658 520.480774 973.226685 509.048645 995.649109 503.478119 C 1018.045776 497.91449 1051.837402 491.589691 1070.674805 489.434052 C 1089.705322 487.255707 1112.814087 483.323822 1122.140869 480.66803 C 1133.044678 477.562744 1168.336182 476.604218 1228.198975 477.847351 C 1309.953857 479.545624 1321.353394 480.704315 1357.342651 490.949585 C 1379.06543 497.133575 1408.105103 508.270935 1421.764771 515.647583 C 1442.455322 526.821594 1448.077759 532.363953 1457.528564 550.871277 C 1468.03772 571.451111 1468.811035 576.390686 1468.811035 623.423218 C 1468.811035 670.7276 1468.089111 675.267456 1457.349854 695.987854 C 1450.945801 708.343689 1441.091431 725.830139 1435.473267 734.809021 C 1429.904663 743.709106 1416.898438 759.790344 1406.63623 770.452576 C 1396.412354 781.075134 1364.801025 805.2099 1336.512451 823.967529 C 1308.174927 842.757324 1270.600952 865.25824 1253.085083 873.932312 C 1235.556396 882.612549 1207.116333 894.602844 1189.945435 900.552612 C 1172.720581 906.520813 1139.810059 917.094299 1116.832031 924.042114 C 1093.920532 930.969604 1066.711914 937.841858 1056.487183 939.293274 C 1046.026367 940.778076 1028.609619 944.779724 1017.701477 948.203491 C 1002.911743 952.845642 996.996643 953.124146 990.593811 949.697449 C 984.646484 946.514587 983.175049 943.194519 984.334717 935.292969 C 985.213257 929.307007 999.218811 903.673767 1015.250854 878.957031 C 1031.498901 853.907471 1053.814697 817.656494 1064.856812 798.373718 C 1075.913574 779.065247 1091.23584 748.888855 1098.930908 731.264282 C 1108.672363 708.953003 1113.045898 692.416809 1113.070923 677.63501 C 1113.093384 664.223572 1110.127686 651.315002 1105.087402 643.125305 C 1100.761841 636.097595 1088.200806 620.383118 1077.103638 608.098206 C 1065.926147 595.723755 1047.638672 580.985962 1036.304688 575.242371 C 1024.951904 569.489563 1010.251953 564.802002 1003.337341 564.802002 C 996.396301 564.802002 987.496643 567.270508 983.288452 570.430481 C 979.042908 573.618713 948.223694 631.729187 913.383423 701.835022 C 879.095276 770.829407 837.176453 853.609863 820.238403 885.776306 C 797.198853 929.529907 786.881226 945.067383 778.553284 949.044617 C 771.664856 952.334229 745.205139 955.279785 710.336243 956.532654 C 678.577637 957.673889 647.757568 960.500427 641.33136 962.930969 C 634.670044 965.450073 626.967346 973.274963 623.967468 980.517151 C 621.029419 987.610046 619.695313 1000.848633 620.947266 1010.182922 C 622.184265 1019.406128 628 1037.369629 633.905396 1050.268555 C 639.827026 1063.203491 653.539001 1083.229492 664.462524 1094.907837 C 679.770142 1111.272949 683.077393 1117.302856 681.796448 1125.789429 C 680.892517 1131.776245 666.890442 1158.575195 650.882263 1184.730957 C 634.829834 1210.959717 615.754822 1242.136475 608.660889 1253.73877 C 601.622864 1265.250366 582.599121 1297.249268 566.374084 1324.86731 C 550.166809 1352.455322 529.879883 1386.319458 521.302307 1400.104248 C 512.63269 1414.036743 501.174591 1438.352051 495.789886 1454.243164 C 490.389557 1470.179932 485.982269 1491.820679 485.982269 1502.522949 C 485.982269 1514.174438 489.857178 1529.769897 495.6026 1541.288696 C 500.897614 1551.904541 511.946899 1566.196045 520.28418 1573.200439 C 528.516174 1580.115967 543.658325 1590.259155 554.020813 1595.801636 C 564.53656 1601.426147 580.318359 1606 589.337219 1606 Z M 554.964111 1594.038086 C 565.207886 1599.51709 580.675598 1604 589.337219 1604 C 598.865479 1604 607.975891 1601.073975 612.404175 1596.591187 C 616.429688 1592.516357 623.988831 1579.812744 629.202637 1568.361084 C 634.416382 1556.909424 642.885315 1533.424561 648.022766 1516.172729 C 653.160217 1498.920898 675.907043 1448.106445 698.571472 1403.251953 C 721.23584 1358.397461 746.555786 1311.347168 754.83783 1298.695801 C 763.120117 1286.044434 777.693176 1261.578369 787.222168 1244.326416 C 796.751465 1227.074707 817.745178 1191.316528 833.874817 1164.86377 C 855.68457 1129.096191 866.837585 1114.893555 877.38562 1109.455322 C 890.089111 1102.906006 906.749939 1102.142334 1037.037598 1102.136475 C 1152.321777 1102.131348 1176.242554 1102.130249 1198.206421 1108.686035 C 1203.957031 1110.402466 1209.573486 1112.568359 1216.6604 1115.301392 C 1238.091919 1123.566406 1257.126709 1134.356079 1267.757935 1144.266235 C 1284.700928 1160.059448 1284.700928 1160.059448 1286.05481 1221.009155 C 1287.330078 1278.408447 1286.80957 1283.267822 1277.118042 1304.43689 C 1270.167603 1319.618164 1254.115112 1339.772705 1227.668213 1366.521973 C 1193.137085 1401.447754 1183.022461 1408.90686 1142.083984 1429.635864 C 1116.550171 1442.564941 1080.791992 1457.890869 1062.621216 1463.693237 C 1031.283691 1473.700562 1024.633545 1474.246094 933.391907 1474.293579 C 860.772644 1474.331421 842.976746 1474.340576 827.060059 1468.876221 C 821.893372 1467.102417 816.924744 1464.751953 810.343262 1461.638428 C 795.571899 1454.650146 776.275696 1442.418701 767.462952 1434.457031 C 755.754761 1423.87915 747.581665 1419.980957 737.112793 1419.980957 C 729.233032 1419.980957 719.828369 1422.938477 716.213562 1426.552979 C 712.296021 1430.470825 709.678528 1440.183594 709.733398 1450.600952 C 709.783936 1460.212646 713.318054 1475.604858 717.587097 1484.805908 C 721.85614 1494.006836 731.695557 1507.454224 739.452026 1514.688721 C 747.20874 1521.92334 763.906128 1534.372314 776.557495 1542.353394 C 789.208923 1550.334229 810.85199 1562.500977 824.653381 1569.390015 C 838.454773 1576.279297 864.809509 1586.884766 883.219177 1592.958008 C 915.523865 1603.614746 920.079834 1604 1013.829712 1604 C 1089.422485 1604 1114.465698 1602.634521 1126.736206 1597.843994 C 1135.408813 1594.458252 1150.032349 1589.897217 1159.233398 1587.708252 C 1168.434326 1585.519409 1189.515137 1578.971558 1206.079712 1573.157471 C 1222.644287 1567.343506 1242.476563 1559.201172 1250.151367 1555.062988 C 1257.826416 1550.925171 1278.14978 1537.700195 1295.314453 1525.674438 C 1312.479492 1513.648438 1336.87439 1495.663086 1349.525757 1485.706665 C 1362.177124 1475.750366 1379.641602 1458.300537 1388.335571 1446.929199 C 1397.029663 1435.557983 1410.86377 1416.239868 1419.078125 1404 C 1427.292236 1391.759766 1437.279785 1371.998779 1441.272339 1360.086304 C 1445.265137 1348.173584 1451.871948 1328.076172 1455.954346 1315.424805 C 1460.982544 1299.841919 1462.788086 1284.328125 1461.55127 1267.328857 C 1460.547363 1253.527588 1453.872437 1226.755615 1446.718384 1207.836182 C 1439.564331 1188.916504 1425.300415 1160.435669 1415.02124 1144.54541 C 1404.741699 1128.655029 1390.034668 1109.773438 1382.338745 1102.585938 C 1374.6427 1095.398682 1352.348755 1078.71106 1332.796753 1065.502686 C 1313.244751 1052.294189 1297.247681 1038.664429 1297.247681 1035.213989 C 1297.247681 1031.402588 1317.990112 1018.271606 1350.099365 1001.755981 C 1379.167847 986.804443 1418.690063 963.732361 1437.926636 950.484863 C 1457.163086 937.237183 1485.054443 917.137939 1499.907349 905.819824 C 1514.760132 894.501343 1534.521118 876.069702 1543.820923 864.860352 C 1553.120483 853.650879 1571.520386 828.41626 1584.709961 808.783325 C 1597.898926 789.150513 1613.425659 760.506226 1619.213501 745.129639 C 1628.783325 719.704102 1629.731934 711.404907 1629.68335 653.488281 C 1629.632324 591.75415 1629.264282 589.08252 1617.667603 566.218994 C 1611.087891 553.246948 1598.971069 532.48938 1590.740845 520.090698 C 1582.511108 507.692017 1571.450439 493.629517 1566.162476 488.841187 C 1560.873901 484.052979 1542.432007 470.726685 1525.180298 459.227051 C 1507.928467 447.727905 1482.204468 432.46106 1468.015625 425.300903 C 1453.826782 418.141235 1427.478638 408.240479 1409.464111 403.299683 C 1391.449585 398.358765 1364.477295 391.420166 1349.525757 387.880127 C 1328.87561 382.991333 1288.662598 381.013062 1182.235718 379.651489 C 1065.588135 378.15918 1035.828369 378.994385 1004.490112 384.639771 C 983.787964 388.368652 952.734802 394.32605 935.483032 397.878296 C 918.231201 401.430054 893.765137 407.0979 881.11377 410.473633 C 868.462341 413.848633 847.760437 419.025391 835.109009 421.976318 C 822.457581 424.927612 796.109497 433.513184 776.557495 441.054688 C 757.005554 448.596802 723.12915 462.369873 701.277039 471.662476 C 679.424866 480.955078 649.726379 495.341309 635.280701 503.632324 C 620.834839 511.922729 589.781677 531.345825 566.273621 546.793945 C 542.76532 562.242432 507.543671 588.667969 488.00293 605.517944 C 468.462189 622.367432 438.675171 653.014404 421.809601 673.62146 C 401.624817 698.284546 383.29303 727.022461 368.171417 757.708252 C 358.038086 778.271729 352.374542 789.764771 349.324097 801.913879 C 345.458954 817.307739 345.789063 833.754944 346.537506 871.042114 C 347.876892 937.756958 347.876892 937.756958 363.965179 969.425232 C 375.72699 992.576965 388.661499 1009.457825 412.061066 1032.195313 C 436.462799 1055.906494 452.795349 1067.51416 480.792755 1081.043457 C 504.823578 1092.655884 520.753357 1097.977295 526.880737 1096.439453 C 532.030945 1095.146729 540.44165 1090.178955 545.571411 1085.399902 C 550.810486 1080.519043 554.898254 1071.716797 554.898254 1065.316528 C 554.898254 1059.049805 548.143982 1043.893066 539.888733 1031.634766 C 531.633484 1019.376404 520.359741 999.640381 514.83606 987.776733 C 506.252289 969.341003 504.787079 959.824524 504.752106 922.280029 C 504.723267 891.227905 507.091339 870.030396 512.831482 849.958252 C 517.297607 834.340942 529.624573 807.057739 540.224915 789.328857 C 553.16272 767.69043 576.270508 740.117065 610.521851 705.446777 C 640.499084 675.103027 675.346497 644.616211 695.003662 631.536987 C 713.40564 619.292969 758.773743 594.197021 795.821777 575.768433 C 832.869568 557.339844 883.684021 535.383057 908.742554 526.97522 C 933.800842 518.567749 972.691833 507.120728 995.16687 501.537109 C 1017.64209 495.953979 1051.518188 489.613159 1070.447388 487.447021 C 1089.376709 485.280273 1112.39209 481.364502 1121.59314 478.744507 C 1132.780884 475.55835 1168.106079 474.598999 1228.240479 475.847778 C 1310.152222 477.549316 1321.696533 478.722534 1357.890259 489.026001 C 1379.742432 495.246826 1408.913696 506.43457 1422.715088 513.887817 C 1443.751465 525.248535 1449.668213 531.080811 1459.309814 549.96167 C 1469.994141 570.884766 1470.811035 576.101318 1470.811035 623.423218 C 1470.811035 671.019775 1470.044434 675.841187 1459.125488 696.908203 C 1452.698486 709.30835 1442.817993 726.841187 1437.168701 735.869873 C 1431.519409 744.898926 1418.428223 761.084961 1408.077271 771.839478 C 1397.726318 782.593994 1366.019409 806.801758 1337.617676 825.634399 C 1309.215942 844.466797 1271.575684 867.007324 1253.972656 875.724609 C 1236.369629 884.44165 1207.852051 896.4646 1190.60022 902.442383 C 1173.348511 908.419922 1140.413208 919.001343 1117.410889 925.956543 C 1094.408447 932.911499 1067.119263 939.804077 1056.768311 941.273438 C 1046.417236 942.742676 1029.106567 946.719971 1018.300415 950.111694 C 1003.046082 954.899658 996.639465 955.201416 989.650085 951.460815 C 982.921814 947.859985 981.079102 943.702271 982.355896 935.002563 C 983.295532 928.600586 997.343262 902.890137 1013.572937 877.868652 C 1029.802856 852.847046 1052.099487 816.627075 1063.121216 797.379883 C 1074.142822 778.132813 1089.432617 748.020508 1097.098022 730.463989 C 1106.739014 708.382813 1111.046387 692.096924 1111.070923 677.631592 C 1111.092773 664.564697 1108.209351 652.013794 1103.384155 644.173584 C 1099.136719 637.272827 1086.642822 621.641968 1075.619507 609.438843 C 1064.596191 597.235107 1046.497681 582.649902 1035.400635 577.026367 C 1024.303223 571.402954 1009.874939 566.802002 1003.337341 566.802002 C 996.799805 566.802002 988.318359 569.154541 984.48938 572.029785 C 980.660461 574.905151 949.468689 633.718018 915.174438 702.725098 C 880.879944 771.7323 838.955078 854.524658 822.008057 886.70813 C 798.695801 930.979614 788.327759 946.592896 779.415222 950.849365 C 772.168518 954.310059 745.611328 957.266479 710.408081 958.531372 C 678.933228 959.662415 648.166992 962.483826 642.038879 964.801636 C 635.910461 967.119202 628.609924 974.535645 625.815247 981.282532 C 623.02063 988.029175 621.722107 1000.914917 622.929504 1009.917053 C 624.136902 1018.919495 629.894409 1036.702881 635.723877 1049.436035 C 641.553101 1062.169189 655.143127 1082.016724 665.923157 1093.541626 C 681.619629 1110.32251 685.175171 1116.805176 683.774048 1126.087891 C 682.811462 1132.463135 668.778015 1159.322266 652.588135 1185.775024 C 636.39856 1212.227783 617.399231 1243.281006 610.367188 1254.782104 C 603.335449 1266.283325 584.314636 1298.277588 568.098511 1325.880371 C 551.882568 1353.483154 531.588318 1387.359497 523.000427 1401.160889 C 514.412354 1414.96228 503.019867 1439.138306 497.684082 1454.88501 C 492.348053 1470.63208 487.982269 1492.069092 487.982269 1502.522949 C 487.982269 1513.855713 491.781616 1529.147339 497.392334 1540.395996 C 502.56781 1550.772217 513.448181 1564.845215 521.570679 1571.669189 C 529.693481 1578.49292 544.720337 1588.559082 554.964111 1594.038086 Z"/>
        </g>
        <path id="Circle-copy" fill="#000000" fill-rule="evenodd" stroke="none" d="M 1967 991.5 C 1967 445.085236 1528.602295 2 987.650879 2 C 446.699463 2 8.301762 445.085236 8.301762 991.5 C 8.301762 1537.914795 446.699463 1981 987.650879 1981 C 1528.602295 1981 1967 1537.914795 1967 991.5 Z M 987.650879 32 C 1511.961914 32 1937 461.582764 1937 991.5 C 1937 1521.417236 1511.961914 1951 987.650879 1951 C 463.339844 1951 38.301762 1521.417236 38.301762 991.5 C 38.301762 461.582764 463.339844 32 987.650879 32 Z"/>
    </g>
</svg>
