<?xml version="1.0" encoding="UTF-8"?>
<!-- Generated by Pixelmator Pro 3.7 -->
<svg width="45" height="44" viewBox="0 0 45 44" xmlns="http://www.w3.org/2000/svg">
    <g id="Group">
        <path id="Path" fill="#b7babe" stroke="none" d="M 38.337997 6.424999 C 29.770996 -2.141998 15.882004 -2.141998 7.315994 6.424999 C 1.112 12.629 -0.692993 21.943001 2.184006 29.367001 C 4.608002 35.619999 9.035995 32.73 9.498993 32.264 C 9.541 32.223 9.589005 32.193001 9.636002 32.160999 C 9.664001 32.125 9.688004 32.084999 9.720993 32.050999 C 10.707993 31.063999 10.957993 30.493 10.964996 28.08 C 10.964996 27.768 11.089996 27.469999 11.309998 27.25 L 21.134995 17.427 C 20.755997 16.816999 20.593002 16.434999 20.559998 16.351 C 20.531006 16.280001 20.511993 16.207001 20.498001 16.134001 C 20.496994 16.129999 20.494003 16.125999 20.494003 16.121 C 20.492996 16.115 20.494003 16.108 20.492996 16.101999 C 20.464005 15.925999 20.475006 15.748001 20.524994 15.58 C 20.528 15.569 20.529999 15.557999 20.533997 15.547001 C 20.559998 15.466999 20.595001 15.390999 20.638 15.317001 C 20.645004 15.305 20.651993 15.295 20.658997 15.284 C 20.705994 15.211 20.757004 15.139999 20.820007 15.077 L 22.201004 13.696999 L 22.201004 13.695999 C 22.264999 13.632999 22.335007 13.581001 22.408997 13.535 C 22.419006 13.528 22.429993 13.521 22.440002 13.514999 C 22.514008 13.471001 22.593002 13.436001 22.673996 13.410999 C 22.682007 13.408001 22.690002 13.406 22.697998 13.403999 C 22.867004 13.354 23.046005 13.341999 23.222 13.371 C 23.229004 13.372 23.235992 13.371 23.242996 13.372 C 23.248001 13.373001 23.253006 13.375999 23.259003 13.376999 C 23.330994 13.392 23.403 13.41 23.473999 13.438 C 23.557999 13.472 23.938004 13.633999 24.548996 14.013 L 28.908005 9.653999 C 29.800995 8.762001 30.927002 8.271 32.080994 8.271 C 33.223007 8.271 34.335999 8.755001 35.214996 9.633999 C 36.947998 11.368 36.940002 14.196999 35.195999 15.941 L 30.822998 20.315001 C 31.166 20.888 31.306 21.240999 31.335007 21.32 C 31.425003 21.563999 31.427994 21.823999 31.356003 22.063999 C 31.354004 22.07 31.352997 22.076 31.350998 22.083 C 31.324997 22.166 31.289001 22.246 31.244995 22.322001 C 31.240005 22.332001 31.233002 22.341 31.225998 22.35 C 31.179993 22.424999 31.126999 22.496 31.063004 22.559999 L 29.682999 23.941 C 29.626999 23.996 29.565994 24.046 29.501999 24.089001 C 29.451004 24.122999 29.395996 24.15 29.339996 24.174999 C 29.324997 24.181999 29.311996 24.191 29.298004 24.197001 C 29.251999 24.216 29.201996 24.228001 29.153 24.24 C 29.128006 24.247 29.104004 24.257999 29.078003 24.263 C 29.018997 24.275 28.960007 24.278 28.899994 24.280001 C 28.882996 24.280001 28.865997 24.285 28.850006 24.285 L 28.850006 24.285 C 28.778 24.285 28.705994 24.277 28.634995 24.264 C 28.632004 24.264 28.628998 24.264 28.626007 24.264 C 28.615997 24.261999 28.606995 24.256001 28.595993 24.254 C 28.544998 24.243 28.492004 24.231001 28.440994 24.212 C 28.362 24.183001 28.007996 24.042999 27.436005 23.700001 L 17.598999 33.537998 C 17.378998 33.758999 17.080994 33.882 16.768997 33.882999 C 14.354996 33.889 13.785004 34.139 12.796997 35.125999 C 12.759003 35.164001 12.716003 35.195 12.673004 35.226002 C 12.645004 35.268002 12.619003 35.311001 12.582001 35.348 C 12.119003 35.812 9.227997 40.240002 15.481003 42.661999 C 22.906006 45.540001 32.220001 43.735001 38.423996 37.529999 C 46.992004 28.968 46.904999 14.992001 38.337997 6.424999 Z"/>
        <path id="path1" fill="#b7babe" stroke="none" d="M 23.962006 20.889999 C 23.408005 20.336 22.942993 19.822001 22.546005 19.349001 L 13.317001 28.577999 C 13.285995 30.202999 13.110001 31.323999 12.462997 32.389 C 13.526993 31.742001 14.647995 31.566 16.274002 31.535 L 25.505005 22.304001 C 25.033997 21.910999 24.518997 21.447001 23.962006 20.889999 Z"/>
    </g>
</svg>
