<?xml version="1.0" encoding="UTF-8"?>
<!-- Generated by Pixelmator Pro 3.7.1 -->
<svg width="1975" height="1983" viewBox="0 0 1975 1983" xmlns="http://www.w3.org/2000/svg">
    <g id="fine">
        <g id="Path">
            <path id="path1" fill="#000000" fill-rule="evenodd" stroke="none" d="M 524 366 L 524 1620 L 871 1620 L 871 1066 L 1533 1066 L 1533 951 L 860 951 L 860 459 L 1543 459 L 1543 362 L 524 366 Z"/>
            <path id="path2" fill="#000000" fill-rule="evenodd" stroke="none" d="M 522 366 L 522 1620 C 522 1621.104614 522.895447 1622 524 1622 L 871 1622 C 872.104553 1622 873 1621.104614 873 1620 L 873 1068 L 1533 1068 C 1534.104614 1068 1535 1067.104614 1535 1066 L 1535 951 C 1535 949.895447 1534.104614 949 1533 949 L 862 949 L 862 461 L 1543 461 C 1544.104614 461 1545 460.104584 1545 459 L 1545 362 C 1545 360.892365 1544.099731 359.995667 1542.992188 360.000031 L 523.992126 364.000031 C 522.890625 364.004333 522 364.898499 522 366 Z M 524 1620 L 524 366 L 1543 362 L 1543 459 L 860 459 L 860 951 L 1533 951 L 1533 1066 L 871 1066 L 871 1620 L 524 1620 Z"/>
        </g>
        <path id="Circle" fill="#000000" fill-rule="evenodd" stroke="none" d="M 1967 991.5 C 1967 445.085236 1528.602295 2 987.650879 2 C 446.699463 2 8.301762 445.085236 8.301762 991.5 C 8.301762 1537.914795 446.699463 1981 987.650879 1981 C 1528.602295 1981 1967 1537.914795 1967 991.5 Z M 987.650879 32 C 1511.961914 32 1937 461.582764 1937 991.5 C 1937 1521.417236 1511.961914 1951 987.650879 1951 C 463.339844 1951 38.301762 1521.417236 38.301762 991.5 C 38.301762 461.582764 463.339844 32 987.650879 32 Z"/>
    </g>
</svg>
