<?xml version="1.0" encoding="UTF-8"?>
<!-- Generated by Pixelmator Pro 3.7.1 -->
<svg width="1975" height="1983" viewBox="0 0 1975 1983" xmlns="http://www.w3.org/2000/svg">
    <g id="mix">
        <path id="Circle-copy" fill="#000000" fill-rule="evenodd" stroke="none" d="M 1967 991.5 C 1967 445.085236 1528.602295 2 987.650879 2 C 446.699463 2 8.301762 445.085236 8.301762 991.5 C 8.301762 1537.914795 446.699463 1981 987.650879 1981 C 1528.602295 1981 1967 1537.914795 1967 991.5 Z M 987.650879 32 C 1511.961914 32 1937 461.582764 1937 991.5 C 1937 1521.417236 1511.961914 1951 987.650879 1951 C 463.339844 1951 38.301762 1521.417236 38.301762 991.5 C 38.301762 461.582764 463.339844 32 987.650879 32 Z"/>
        <path id="Path-copy" fill="none" stroke="#000000" stroke-width="154" stroke-linecap="round" stroke-linejoin="round" d="M 536.577454 607.211426 C 559.723633 564.204712 663.507874 271.603638 803.845032 373.352295 C 932.931152 466.943726 428 1551 428 1551 C 428 1551 1012.294189 364.295898 1204.746338 540.394531 C 1354.290405 677.231201 945.830872 1325.49292 945.830872 1325.49292 C 945.830872 1325.49292 1408.81958 840.793823 1530.478638 916.239502 C 1597.542236 957.828369 1438.605469 1358.901367 1438.605469 1358.901367"/>
    </g>
</svg>
